# xmcd
#
# Track frame offsets:
#	150
#	10337
#	20725
#	31825
#	44375
#	49287
#	68537
#	80775
#	95287
#	105700
#	117350
#	128712
#	141150
#	151700
#	163350
#	174925
#	188125
#	200200
#	211975
#	223100
#	234250
#	244700
#	253975
#	265175
#	278162
#
# Disc length: 3896
#
# Revision: 2
# Processed by: cddbd v1.5.1PL0 Copyright (c) Steve Scherf et al.
# Submitted via: dBpowerAMP V4.0
# Normalized: r0:TSWAP
#
DISCID=6a0f3619
DTITLE=Various Artist - Country Super Stars
DYEAR=1900
DGENRE=Country
TTITLE0=Roger Miller - Engine, Engine #9
TTITLE1=Statler Brothers - Flowers On The Wall
TTITLE2=Tammy Wynette - D-I-V-O-R-C-E
TTITLE3=Charley Pride - Crystal Chandeliers
TTITLE4=Glen Campbell - Galveston
TTITLE5=Kris Kristofferson - Silver Tongued Devil
TTITLE6=Anne Murray - All The Time
TTITLE7=Merle Haggard - Train Whistle Blues
TTITLE8=Roy Orbison - Lonesome Number One
TTITLE9=Tom T Hall - I Like Beer
TTITLE10=Sammy Smith - Help Me Make It Through The Night
TTITLE11=Bill Anderson - Still
TTITLE12=Johnny Tillotson - Send Me The Pillow You Dream On
TTITLE13=Bobby Bare - Please Don't Tell Me How The Story Ends
TTITLE14=Skeeter Davis - The End Of The World
TTITLE15=Ray Charles - Take These Chains From My Heart
TTITLE16=Don Gibson - Just One Time
TTITLE17=Stonewall Jackson - Waterloo
TTITLE18=Patsy Cline - Stop The World (And Let Me Off)
TTITLE19=Jim Reeves - Am I Losing You?
TTITLE20=Boxcar Willie - Jambalaya
TTITLE21=Hank Snow - I'm Moving On
TTITLE22=Dolly Parton - Honky Tonk Angels
TTITLE23=Kenny Rogers - Ruby, Don't Take Your Love To Town
TTITLE24=Freddy Fender - Wasted Days and Wasted Nights
EXTD=
EXTT0=
EXTT1=
EXTT2=
EXTT3=
EXTT4=
EXTT5=
EXTT6=
EXTT7=
EXTT8=
EXTT9=
EXTT10=
EXTT11=
EXTT12=
EXTT13=
EXTT14=
EXTT15=
EXTT16=
EXTT17=
EXTT18=
EXTT19=
EXTT20=
EXTT21=
EXTT22=
EXTT23=
EXTT24=
PLAYORDER=
